<?xml version="1.0" encoding="UTF-8" standalone="no"?>
<svg version="1.2" viewBox="0 0 223.52756 212.93318" width="44.705513" height="42.586639" id="svg11"
   xmlns="http://www.w3.org/2000/svg">
   <defs id="defs11" />
   <style id="style1">
      .a {
         fill: #fcb041
      }

      .b {
         mix-blend-mode: multiply;
         fill: #fcb041
      }

      .c {
         fill: #414143
      }

      .d {
         fill: none;
         stroke: #414143;
         stroke-linecap: round;
         stroke-miterlimit: 10;
         stroke-width: 2
      }
   </style>
   <path class="a"
      d="m 111.78091,21.68692 c -45.799992,0 -82.899993,37.1 -82.899993,82.89998 q 0,0.4 0,0.7 h 27.9 q 0,-0.2 0,-0.5 c 0,-30.39998 24.600001,-54.99998 54.999993,-54.99998 30.4,0 55,24.6 55,54.99998 q 0,0.3 0,0.5 h 27.9 q 0,-0.3 0,-0.7 c 0,-45.79998 -37.1,-82.89998 -82.9,-82.89998 z"
      id="path1" />
   <path class="b"
      d="m 166.78091,104.7869 q 0,0.3 0,0.5 h 27.9 q 0,-0.3 0,-0.7 c 0,-22.49998 -8.9,-42.79998 -23.4,-57.69998 l -29.4,11.9 c 15,9.8 24.9,26.8 24.9,45.99998 z"
      id="path2" />
   <path class="b"
      d="m 56.780917,105.2869 q 0,-0.2 0,-0.5 c 0,-4.1 0.5,-8.19998 1.3,-12.09998 l -29.2,11.89998 15.6,0.7 z"
      id="path3" />
   <path class="c"
      d="M 143.78091,40.58692 H 79.780918 l -6.7,64.69998 h 77.399992 z m -55.799992,12.9 c -1.8,0 -3.3,-1.5 -3.3,-3.3 0,-1.9 1.5,-3.4 3.3,-3.4 1.9,0 3.4,1.5 3.4,3.4 0,1.8 -1.5,3.3 -3.4,3.3 z m 47.499992,0 c -1.8,0 -3.3,-1.5 -3.3,-3.3 0,-1.9 1.5,-3.4 3.3,-3.4 1.8,0 3.3,1.5 3.3,3.4 0,1.8 -1.5,3.3 -3.3,3.3 z"
      id="path4" />
   <path class="d"
      d="m 88.480918,50.48692 c 0,0 -1,-43.7000011 15.799992,-48.6000011 15,-4.3 25.6,17.8000011 15.6,27.6000011 -9,8.7 -6.2,-12 8.6,-8 17.2,4.6 7.2,29 7.2,29"
      id="path5" />
   <path class="a" d="m 111.78091,212.5869 50.5,-36.5 H 61.280918 Z" id="path6" />
   <path class="d" d="M 1.0809173,113.0869 H 222.48091" id="path7" />
   <path fill-rule="evenodd" class="d" d="M 1.0809173,167.6869 H 222.48091" id="path8" />
   <path class="b" d="m 138.48091,193.2869 -77.199992,-17.2 50.499992,36.5 z" id="path9" />
   <path class="c"
      d="m 16.980917,149.4869 h 5.1 v -21.2 h -5.1 v 8.3 H 8.9809163 v -8.3 h -5.199999 v 21.2 h 5.199999 v -8.7 h 8.0000007 z m 26.3,0 h 5.5 l -7.7,-21.2 h -6 l -7.6,21.2 h 5.4 l 1.2,-3.8 h 7.9 z m -2.5,-7.7 h -5.3 l 2.6,-7.7 z m 27.900001,7.7 h 5.4 l -7.6,-21.2 h -6.000001 l -7.7,21.2 h 5.4 l 1.3,-3.7 h 7.900001 z m -2.6,-7.8 h -5.200001 l 2.600001,-7.7 z m 12.2,-9.3 h 5.6 v 17 h 5.2 v -17 h 5.6 v -4.2 h -16.4 z"
      id="path10" />
   <path class="a"
      d="m 121.28091,142.9869 c 0,1.6 -1,2.3 -2.8,2.3 h -3.8 v -4.6 h 3.8 c 1.7,0 2.8,0.8 2.8,2.3 z m -0.6,-8.3 c 0,1.4 -0.9,2.2 -2.6,2.2 h -3.4 v -4.4 h 3.4 c 1.7,0 2.6,0.7 2.6,2.2 z m 5.8,9 c 0,-2.4 -1.6,-4.5 -4.1,-5.1 2.1,-0.6 3.6,-2.2 3.6,-4.8 0,-3.3 -2.6,-5.5 -6.9,-5.5 h -9.5 v 21.2 h 9.8 c 4.5,0 7.1,-2.3 7.1,-5.8 z m 20.4,5.8 h 5.5 l -7.7,-21.2 h -6 l -7.6,21.2 h 5.4 l 1.3,-3.7 h 7.9 z m -2.6,-7.8 h -5.3 l 2.6,-7.7 z m 28,-13.5 h -14.9 v 4.3 h 9 l -9,13 v 3.9 h 14.9 v -4.2 h -9.1 l 9.1,-13 z m 20.9,21.1 h 5.4 l -7.7,-21.1 h -5.9 l -7.7,21.1 h 5.4 l 1.3,-3.7 h 7.9 z m -2.6,-7.7 h -5.2 l 2.6,-7.8 z m 24.5,-6.5 c 0,1.6 -0.9,2.6 -2.8,2.6 h -3.2 v -5.2 h 3.2 c 1.9,0 2.8,1 2.8,2.6 z m -11.1,-6.9 v 21.1 h 5.1 v -7.9 h 1.2 l 4.4,7.9 h 5.9 l -4.9,-8.3 c 3.2,-1 4.7,-3.5 4.7,-6.2 0,-3.6 -2.6,-6.6 -7.8,-6.6 z"
      id="path11" />
</svg>